<svg xmlns="http://www.w3.org/2000/svg" version="1.1" xmlns:xlink="http://www.w3.org/1999/xlink" width="512" height="512" x="0" y="0" viewBox="0 0 512 512.001" style="enable-background:new 0 0 512 512" xml:space="preserve"><g><path d="M203.129 461.438c-4.207-.82-8.098 2.027-8.82 5.894-.973 4.668 2.714 8.969 7.351 8.969 4.024 0 7.5-3.266 7.5-7.5 0-3.395-2.3-6.578-6.031-7.364zM228.5 446.758c0-3.399-2.32-6.578-6.04-7.352-4.597-.91-8.96 2.586-8.96 7.352 0 4.254 3.48 7.5 7.5 7.5 4.195 0 7.5-3.442 7.5-7.5zM228.89 480.691c4.067 0 7.505-3.312 7.505-7.5 0-3.57-2.48-6.62-6.043-7.359-4.61-.914-8.961 2.617-8.961 7.36 0 4.18 3.425 7.5 7.5 7.5zM248.234 458.648c4.196 0 7.5-3.433 7.5-7.488 0-4.707-4.308-8.277-8.968-7.363a7.517 7.517 0 0 0-6.043 7.363c0 4.07 3.32 7.488 7.511 7.488zM247.836 424.723c0-3.41-2.324-6.59-6.031-7.36-4.535-.91-8.973 2.551-8.973 7.36 0 4.086 3.332 7.504 7.5 7.504 4.078 0 7.504-3.297 7.504-7.504zm0 0" fill="#ffffff" opacity="1" data-original="#000000"></path><path d="m382.758 381.008-10.965 2.644a7.503 7.503 0 0 0 3.52 14.586l10.964-2.648c10.176-2.457 20.57 3.098 24.192 12.914 4.105 11.129-2.246 23.32-13.696 26.351l-39.402 10.422c-13.004 3.446-26.809-2.28-33.559-13.922l-15.699-27.078c10.13 2.403 20.11 3.286 31.309 1.973a7.5 7.5 0 0 0 6.574-8.324c-.48-4.113-4.207-7.051-8.324-6.574-8.457.992-16.945.5-25.23-1.465l-14.696-3.48-75.715-130.579 17.864-30.808c3.593.671 7.156.464 10.496-.512v-.004c5.34-1.57 10.156-5.184 13.12-10.3L368.126 33.792c6.242-10.758 2.582-24.52-8.18-30.762-10.738-6.222-24.535-2.554-30.761 8.184L224.574 191.62c-4.87 8.395-3.77 18.7 2.344 25.871l-13.559 23.38-13.55-23.368c6-7.063 7.246-17.422 2.34-25.883L97.534 11.211C91.313.477 77.512-3.191 66.773 3.03c-10.734 6.227-14.402 20.024-8.18 30.762 7.298 12.582 100.095 172.617 104.614 180.41a22.463 22.463 0 0 0 23.617 10.817l17.864 30.808-75.715 130.578-14.692 3.48c-20.781 4.923-32.297.302-70.316-8.878-17.57-4.246-35.535 5.347-41.79 22.305-7.148 19.39 3.966 40.757 23.938 46.046C69.16 460.75 69.43 461.27 76.95 461.27c15.742 0 30.778-8.312 38.938-22.39l97.476-168.098 97.473 168.098c8.164 14.078 23.191 22.39 38.937 22.39 7.524 0 7.797-.523 50.836-11.914 19.934-5.273 31.102-26.62 23.938-46.042-6.254-16.958-24.223-26.547-41.79-22.305zm-40.594-362.27c2.074-3.582 6.68-4.804 10.258-2.73a7.502 7.502 0 0 1 2.726 10.258L269.457 174.05l-13.082-7.367zM237.551 199.145l11.297-19.48 13.082 7.362-11.395 19.649c-2.047 3.531-6.61 4.844-10.258 2.73a7.508 7.508 0 0 1-2.726-10.261zm-80.285-25.094L71.57 26.266c-2.074-3.578-.851-8.18 2.73-10.258 3.579-2.074 8.184-.852 10.259 2.73l85.789 147.946zm29.175 35.351c-3.652 2.118-8.21.801-10.257-2.726l-11.391-19.649 13.078-7.363 11.297 19.48c2.078 3.583.852 8.184-2.727 10.258zm-83.535 221.953c-6.75 11.641-20.543 17.364-33.558 13.922l-39.399-10.422c-11.469-3.039-17.797-15.238-13.699-26.351 3.625-9.836 14.035-15.363 24.191-12.914 38.496 9.297 52.282 14.832 78.164 8.687zm0 0" fill="#ffffff" opacity="1" data-original="#000000"></path><path d="M277.648 429.605a7.496 7.496 0 0 0 5.196-9.246c-14.88-53.097-81.645-70.316-120.469-31.492-28.129 28.133-28.129 73.906 0 102.035 14.066 14.067 32.54 21.102 51.02 21.098 32.746-.004 60.832-21.836 69.449-52.586a7.502 7.502 0 1 0-14.445-4.05c-11.758 41.96-64.614 55.73-95.415 24.929-22.28-22.277-22.28-58.535 0-80.816 30.805-30.805 83.66-17.024 95.414 24.93a7.506 7.506 0 0 0 9.25 5.198zm0 0" fill="#ffffff" opacity="1" data-original="#000000"></path></g></svg>