<svg width="1470" height="192" viewBox="0 0 1470 192" fill="none" xmlns="http://www.w3.org/2000/svg">
<path d="M1466.68 131.989C1466.68 133.545 1465.79 135.381 1463.37 137.385C1460.97 139.377 1457.34 141.282 1452.64 142.93C1443.25 146.218 1430.12 148.298 1415.51 148.298C1400.89 148.298 1387.76 146.218 1378.38 142.93C1373.67 141.282 1370.04 139.377 1367.64 137.385C1365.22 135.381 1364.33 133.545 1364.33 131.989C1364.33 130.433 1365.22 128.597 1367.64 126.593C1370.04 124.602 1373.67 122.696 1378.38 121.048C1387.76 117.76 1400.89 115.68 1415.51 115.68C1430.12 115.68 1443.25 117.76 1452.64 121.048C1457.34 122.696 1460.97 124.602 1463.37 126.593C1465.79 128.597 1466.68 130.433 1466.68 131.989Z" fill="#45A33D" stroke="black" stroke-width="5"/>
<line x1="1413.77" y1="131.989" x2="1413.77" y2="22.9025" stroke="black" stroke-width="5"/>
<ellipse cx="1415.51" cy="131.989" rx="13.5365" ry="4.03147" fill="black"/>
<path d="M1417.22 28.7736L1436.98 40.7613L1417.22 52.7491L1417.22 28.7736Z" fill="#45A33D" stroke="black" stroke-width="5"/>
<path d="M72.981 97.0483H101.481C100.231 98.7983 99.481 102.048 98.981 107.298C98.481 112.548 98.231 117.548 97.981 122.298C97.981 127.298 97.731 131.298 97.731 135.048C97.731 138.548 97.981 147.048 97.981 150.298C94.731 146.548 88.981 140.548 83.231 140.548C76.481 140.548 71.731 151.298 57.231 151.298C22.231 151.298 5.73096 116.798 5.73096 85.7983C5.73096 54.0483 22.231 20.2983 58.231 20.2983C73.231 20.2983 87.231 25.7983 99.981 33.0483L82.981 67.5483C80.981 52.5483 71.981 24.2983 53.231 24.2983C34.231 24.2983 30.231 76.2983 30.231 88.5483C30.231 106.298 33.981 147.548 59.231 147.548C66.981 147.548 75.481 141.048 76.231 133.048C76.481 131.298 76.731 129.298 76.731 127.548C76.731 126.798 76.481 124.298 76.481 119.548C76.481 111.798 76.231 104.298 72.981 97.0483ZM169.92 151.798C132.92 151.798 112.42 120.298 112.42 85.7983C112.42 51.5483 132.67 20.2983 169.67 20.2983C206.67 20.2983 226.92 52.0483 226.92 86.2983C226.92 120.298 206.92 151.798 169.92 151.798ZM169.67 148.048C196.42 148.048 202.42 105.048 202.42 85.5483C202.42 66.5483 196.17 24.0483 170.17 24.0483C143.17 24.0483 136.92 66.7983 136.92 86.5483C136.92 105.798 142.92 148.048 169.67 148.048ZM241.409 128.048V43.7983C241.409 35.5483 241.659 28.7983 237.909 21.0483H266.659C262.909 28.7983 263.159 35.5483 263.159 43.7983L262.909 147.298C296.909 146.548 313.409 146.298 320.659 115.048L329.409 150.798H237.909C241.159 143.798 241.409 135.798 241.409 128.048ZM343.948 133.798V43.7983C343.948 36.0483 343.698 28.0483 340.448 21.0483H436.948L428.198 56.7983C420.948 25.7983 399.448 25.2983 365.448 24.5483L365.948 80.7983H392.698C399.198 80.7983 406.198 72.0483 406.948 66.0483H407.698V99.2983H406.948C406.198 93.2983 399.198 84.5483 392.698 84.5483H365.948L365.448 126.798C365.448 132.548 366.198 146.548 368.948 150.798H340.448C343.198 145.548 343.948 139.548 343.948 133.798Z" fill="#45A33D"/>
<path d="M565.168 97.0483H593.668C592.418 98.7983 591.668 102.048 591.168 107.298C590.668 112.548 590.418 117.548 590.168 122.298C590.168 127.298 589.918 131.298 589.918 135.048C589.918 138.548 590.168 147.048 590.168 150.298C586.918 146.548 581.168 140.548 575.418 140.548C568.668 140.548 563.918 151.298 549.418 151.298C514.418 151.298 497.918 116.798 497.918 85.7983C497.918 54.0483 514.418 20.2983 550.418 20.2983C565.418 20.2983 579.418 25.7983 592.168 33.0483L575.168 67.5483C573.168 52.5483 564.168 24.2983 545.418 24.2983C526.418 24.2983 522.418 76.2983 522.418 88.5483C522.418 106.298 526.168 147.548 551.418 147.548C559.168 147.548 567.668 141.048 568.418 133.048C568.668 131.298 568.918 129.298 568.918 127.548C568.918 126.798 568.668 124.298 568.668 119.548C568.668 111.798 568.418 104.298 565.168 97.0483ZM630.108 91.7983C629.858 101.548 629.358 110.548 629.358 120.298C629.358 130.048 629.108 142.048 633.108 150.798H604.608C607.108 146.798 608.108 139.298 608.108 133.048V43.7983C608.108 36.0483 607.858 28.0483 604.608 21.0483H658.858C678.858 21.0483 695.108 33.2983 695.108 54.5483C695.108 73.5483 683.608 87.7983 664.358 87.7983C700.108 96.7983 687.358 138.548 700.608 150.798H669.858C669.108 133.048 672.358 88.2983 645.608 88.2983C639.858 88.2983 634.858 89.7983 630.108 91.7983ZM629.608 24.7983L630.108 88.0483C649.108 80.0483 672.608 93.5483 672.608 56.0483C672.608 39.0483 663.358 24.7983 645.358 24.7983H629.608ZM709.67 128.048V43.7983C709.67 36.0483 709.42 28.0483 706.17 21.0483H802.67L793.92 56.7983C786.67 25.7983 765.17 25.2983 731.17 24.5483L731.67 80.7983H758.42C764.92 80.7983 771.92 72.0483 772.67 66.0483H773.42V99.2983H772.67C771.92 93.2983 764.92 84.5483 758.42 84.5483H731.67L731.17 147.298C765.17 146.548 786.67 146.048 793.92 115.048L802.67 150.798H706.17C709.42 143.798 709.67 135.798 709.67 128.048ZM817.092 128.048V43.7983C817.092 36.0483 816.842 28.0483 813.592 21.0483H910.092L901.342 56.7983C894.092 25.7983 872.592 25.2983 838.592 24.5483L839.092 80.7983H865.842C872.342 80.7983 879.342 72.0483 880.092 66.0483H880.842V99.2983H880.092C879.342 93.2983 872.342 84.5483 865.842 84.5483H839.092L838.592 147.298C872.592 146.548 894.092 146.048 901.342 115.048L910.092 150.798H813.592C816.842 143.798 817.092 135.798 817.092 128.048ZM1013.26 150.798H1009.51L929.014 29.0483C928.764 32.2983 928.264 35.5483 928.264 38.7983V133.798C928.264 139.548 929.014 145.548 931.764 150.798H921.264C924.514 146.298 924.764 132.548 924.764 126.798L924.514 43.7983C924.514 36.0483 924.764 28.0483 921.014 21.0483H948.764L1009.51 113.048L1009.76 45.0483C1009.76 39.2983 1009.51 25.5483 1006.26 21.0483H1016.76C1014.01 26.2983 1013.26 32.2983 1013.26 38.0483V150.798ZM1031.2 128.048V43.7983C1031.2 36.0483 1030.95 28.0483 1027.7 21.0483H1124.2L1115.45 56.7983C1108.2 25.7983 1086.7 25.2983 1052.7 24.5483L1053.2 80.7983H1079.95C1086.45 80.7983 1093.45 72.0483 1094.2 66.0483H1094.95V99.2983H1094.2C1093.45 93.2983 1086.45 84.5483 1079.95 84.5483H1053.2L1052.7 147.298C1086.7 146.548 1108.2 146.048 1115.45 115.048L1124.2 150.798H1027.7C1030.95 143.798 1031.2 135.798 1031.2 128.048ZM1160.63 91.7983C1160.38 101.548 1159.88 110.548 1159.88 120.298C1159.88 130.048 1159.63 142.048 1163.63 150.798H1135.13C1137.63 146.798 1138.63 139.298 1138.63 133.048V43.7983C1138.63 36.0483 1138.38 28.0483 1135.13 21.0483H1189.38C1209.38 21.0483 1225.63 33.2983 1225.63 54.5483C1225.63 73.5483 1214.13 87.7983 1194.88 87.7983C1230.63 96.7983 1217.88 138.548 1231.13 150.798H1200.38C1199.63 133.048 1202.88 88.2983 1176.13 88.2983C1170.38 88.2983 1165.38 89.7983 1160.63 91.7983ZM1160.13 24.7983L1160.63 88.0483C1179.63 80.0483 1203.13 93.5483 1203.13 56.0483C1203.13 39.0483 1193.88 24.7983 1175.88 24.7983H1160.13ZM1256.69 40.2983C1256.69 74.7983 1331.44 76.0483 1331.44 117.798C1331.44 143.798 1307.44 152.048 1284.44 152.048C1265.69 152.048 1250.94 145.048 1236.69 137.798L1254.19 94.5483C1254.19 118.048 1264.19 148.048 1292.19 148.048C1302.44 148.048 1315.19 140.048 1315.19 130.048C1315.19 93.2983 1241.44 94.2983 1241.44 52.0483C1241.44 27.0483 1261.94 20.0483 1283.94 20.0483C1299.94 20.0483 1318.19 24.5483 1332.44 35.2983L1316.44 78.0483C1316.44 76.7983 1316.44 75.5483 1316.44 74.2983C1316.44 58.5483 1312.19 45.5483 1304.94 36.7983C1297.69 28.0483 1288.19 24.0483 1279.44 23.7983C1279.19 23.7983 1278.94 23.7983 1278.44 23.7983C1266.69 23.7983 1256.69 31.0483 1256.69 40.2983Z" fill="black"/>
</svg>
