<svg width="1470" height="192" viewBox="0 0 1470 192" fill="none" xmlns="http://www.w3.org/2000/svg">
<path d="M1466.68 131.357C1466.68 132.913 1465.79 134.749 1463.37 136.753C1460.97 138.745 1457.34 140.65 1452.64 142.298C1443.25 145.586 1430.12 147.666 1415.51 147.666C1400.89 147.666 1387.76 145.586 1378.38 142.298C1373.67 140.65 1370.04 138.745 1367.64 136.753C1365.22 134.749 1364.33 132.913 1364.33 131.357C1364.33 129.801 1365.22 127.965 1367.64 125.961C1370.04 123.97 1373.67 122.064 1378.38 120.416C1387.76 117.128 1400.89 115.048 1415.51 115.048C1430.12 115.048 1443.25 117.128 1452.64 120.416C1457.34 122.064 1460.97 123.97 1463.37 125.961C1465.79 127.965 1466.68 129.801 1466.68 131.357Z" fill="#45A33D" stroke="white" stroke-width="5"/>
<line x1="1413.77" y1="131.357" x2="1413.77" y2="22.2704" stroke="white" stroke-width="5"/>
<ellipse cx="1415.51" cy="131.357" rx="13.5365" ry="4.03147" fill="black"/>
<path d="M1417.22 28.1415L1436.98 40.1293L1417.22 52.117L1417.22 28.1415Z" fill="#45A33D" stroke="white" stroke-width="5"/>
<path d="M72.981 96.4162H101.481C100.231 98.1662 99.481 101.416 98.981 106.666C98.481 111.916 98.231 116.916 97.981 121.666C97.981 126.666 97.731 130.666 97.731 134.416C97.731 137.916 97.981 146.416 97.981 149.666C94.731 145.916 88.981 139.916 83.231 139.916C76.481 139.916 71.731 150.666 57.231 150.666C22.231 150.666 5.73096 116.166 5.73096 85.1662C5.73096 53.4162 22.231 19.6662 58.231 19.6662C73.231 19.6662 87.231 25.1662 99.981 32.4162L82.981 66.9162C80.981 51.9162 71.981 23.6662 53.231 23.6662C34.231 23.6662 30.231 75.6662 30.231 87.9162C30.231 105.666 33.981 146.916 59.231 146.916C66.981 146.916 75.481 140.416 76.231 132.416C76.481 130.666 76.731 128.666 76.731 126.916C76.731 126.166 76.481 123.666 76.481 118.916C76.481 111.166 76.231 103.666 72.981 96.4162ZM169.92 151.166C132.92 151.166 112.42 119.666 112.42 85.1662C112.42 50.9162 132.67 19.6662 169.67 19.6662C206.67 19.6662 226.92 51.4162 226.92 85.6662C226.92 119.666 206.92 151.166 169.92 151.166ZM169.67 147.416C196.42 147.416 202.42 104.416 202.42 84.9162C202.42 65.9162 196.17 23.4162 170.17 23.4162C143.17 23.4162 136.92 66.1662 136.92 85.9162C136.92 105.166 142.92 147.416 169.67 147.416ZM241.409 127.416V43.1662C241.409 34.9162 241.659 28.1662 237.909 20.4162H266.659C262.909 28.1662 263.159 34.9162 263.159 43.1662L262.909 146.666C296.909 145.916 313.409 145.666 320.659 114.416L329.409 150.166H237.909C241.159 143.166 241.409 135.166 241.409 127.416ZM343.948 133.166V43.1662C343.948 35.4162 343.698 27.4162 340.448 20.4162H436.948L428.198 56.1662C420.948 25.1662 399.448 24.6662 365.448 23.9162L365.948 80.1662H392.698C399.198 80.1662 406.198 71.4162 406.948 65.4162H407.698V98.6662H406.948C406.198 92.6662 399.198 83.9162 392.698 83.9162H365.948L365.448 126.166C365.448 131.916 366.198 145.916 368.948 150.166H340.448C343.198 144.916 343.948 138.916 343.948 133.166Z" fill="#45A33D"/>
<path d="M565.168 96.4162H593.668C592.418 98.1662 591.668 101.416 591.168 106.666C590.668 111.916 590.418 116.916 590.168 121.666C590.168 126.666 589.918 130.666 589.918 134.416C589.918 137.916 590.168 146.416 590.168 149.666C586.918 145.916 581.168 139.916 575.418 139.916C568.668 139.916 563.918 150.666 549.418 150.666C514.418 150.666 497.918 116.166 497.918 85.1662C497.918 53.4162 514.418 19.6662 550.418 19.6662C565.418 19.6662 579.418 25.1662 592.168 32.4162L575.168 66.9162C573.168 51.9162 564.168 23.6662 545.418 23.6662C526.418 23.6662 522.418 75.6662 522.418 87.9162C522.418 105.666 526.168 146.916 551.418 146.916C559.168 146.916 567.668 140.416 568.418 132.416C568.668 130.666 568.918 128.666 568.918 126.916C568.918 126.166 568.668 123.666 568.668 118.916C568.668 111.166 568.418 103.666 565.168 96.4162ZM630.108 91.1662C629.858 100.916 629.358 109.916 629.358 119.666C629.358 129.416 629.108 141.416 633.108 150.166H604.608C607.108 146.166 608.108 138.666 608.108 132.416V43.1662C608.108 35.4162 607.858 27.4162 604.608 20.4162H658.858C678.858 20.4162 695.108 32.6662 695.108 53.9162C695.108 72.9162 683.608 87.1662 664.358 87.1662C700.108 96.1662 687.358 137.916 700.608 150.166H669.858C669.108 132.416 672.358 87.6662 645.608 87.6662C639.858 87.6662 634.858 89.1662 630.108 91.1662ZM629.608 24.1662L630.108 87.4162C649.108 79.4162 672.608 92.9162 672.608 55.4162C672.608 38.4162 663.358 24.1662 645.358 24.1662H629.608ZM709.67 127.416V43.1662C709.67 35.4162 709.42 27.4162 706.17 20.4162H802.67L793.92 56.1662C786.67 25.1662 765.17 24.6662 731.17 23.9162L731.67 80.1662H758.42C764.92 80.1662 771.92 71.4162 772.67 65.4162H773.42V98.6662H772.67C771.92 92.6662 764.92 83.9162 758.42 83.9162H731.67L731.17 146.666C765.17 145.916 786.67 145.416 793.92 114.416L802.67 150.166H706.17C709.42 143.166 709.67 135.166 709.67 127.416ZM817.092 127.416V43.1662C817.092 35.4162 816.842 27.4162 813.592 20.4162H910.092L901.342 56.1662C894.092 25.1662 872.592 24.6662 838.592 23.9162L839.092 80.1662H865.842C872.342 80.1662 879.342 71.4162 880.092 65.4162H880.842V98.6662H880.092C879.342 92.6662 872.342 83.9162 865.842 83.9162H839.092L838.592 146.666C872.592 145.916 894.092 145.416 901.342 114.416L910.092 150.166H813.592C816.842 143.166 817.092 135.166 817.092 127.416ZM1013.26 150.166H1009.51L929.014 28.4162C928.764 31.6662 928.264 34.9162 928.264 38.1662V133.166C928.264 138.916 929.014 144.916 931.764 150.166H921.264C924.514 145.666 924.764 131.916 924.764 126.166L924.514 43.1662C924.514 35.4162 924.764 27.4162 921.014 20.4162H948.764L1009.51 112.416L1009.76 44.4162C1009.76 38.6662 1009.51 24.9162 1006.26 20.4162H1016.76C1014.01 25.6662 1013.26 31.6662 1013.26 37.4162V150.166ZM1031.2 127.416V43.1662C1031.2 35.4162 1030.95 27.4162 1027.7 20.4162H1124.2L1115.45 56.1662C1108.2 25.1662 1086.7 24.6662 1052.7 23.9162L1053.2 80.1662H1079.95C1086.45 80.1662 1093.45 71.4162 1094.2 65.4162H1094.95V98.6662H1094.2C1093.45 92.6662 1086.45 83.9162 1079.95 83.9162H1053.2L1052.7 146.666C1086.7 145.916 1108.2 145.416 1115.45 114.416L1124.2 150.166H1027.7C1030.95 143.166 1031.2 135.166 1031.2 127.416ZM1160.63 91.1662C1160.38 100.916 1159.88 109.916 1159.88 119.666C1159.88 129.416 1159.63 141.416 1163.63 150.166H1135.13C1137.63 146.166 1138.63 138.666 1138.63 132.416V43.1662C1138.63 35.4162 1138.38 27.4162 1135.13 20.4162H1189.38C1209.38 20.4162 1225.63 32.6662 1225.63 53.9162C1225.63 72.9162 1214.13 87.1662 1194.88 87.1662C1230.63 96.1662 1217.88 137.916 1231.13 150.166H1200.38C1199.63 132.416 1202.88 87.6662 1176.13 87.6662C1170.38 87.6662 1165.38 89.1662 1160.63 91.1662ZM1160.13 24.1662L1160.63 87.4162C1179.63 79.4162 1203.13 92.9162 1203.13 55.4162C1203.13 38.4162 1193.88 24.1662 1175.88 24.1662H1160.13ZM1256.69 39.6662C1256.69 74.1662 1331.44 75.4162 1331.44 117.166C1331.44 143.166 1307.44 151.416 1284.44 151.416C1265.69 151.416 1250.94 144.416 1236.69 137.166L1254.19 93.9162C1254.19 117.416 1264.19 147.416 1292.19 147.416C1302.44 147.416 1315.19 139.416 1315.19 129.416C1315.19 92.6662 1241.44 93.6662 1241.44 51.4162C1241.44 26.4162 1261.94 19.4162 1283.94 19.4162C1299.94 19.4162 1318.19 23.9162 1332.44 34.6662L1316.44 77.4162C1316.44 76.1662 1316.44 74.9162 1316.44 73.6662C1316.44 57.9162 1312.19 44.9162 1304.94 36.1662C1297.69 27.4162 1288.19 23.4162 1279.44 23.1662C1279.19 23.1662 1278.94 23.1662 1278.44 23.1662C1266.69 23.1662 1256.69 30.4162 1256.69 39.6662Z" fill="white"/>
</svg>
