<svg xmlns="http://www.w3.org/2000/svg" version="1.1" xmlns:xlink="http://www.w3.org/1999/xlink" width="512" height="512" x="0" y="0" viewBox="0 0 510 510" style="enable-background:new 0 0 512 512" xml:space="preserve" fill-rule="evenodd"><g><path d="M210.39 404.385h16.055a8 8 0 0 1 8 8V495a8 8 0 0 1-8 8H72.92a8 8 0 0 1-8-8v-82.615a8 8 0 0 1 8-8h16.055v-10.133c0-18.501 14.998-33.499 33.499-33.499h3.371V102.761c-16.063-8.55-27.008-25.464-27.008-44.915C98.837 29.783 121.62 7 149.682 7c28.063 0 50.846 22.783 50.846 50.846 0 19.451-10.946 36.365-27.008 44.915v5.898c59.072-21.165 86.867-13.097 117.026-2.593 29.661 10.33 61.796 23.37 133.582 9.877l.073-.014a13.65 13.65 0 0 1 12.376 22.749 269424.208 269424.208 0 0 1-71.492 76.591l76.105 77.928a13.669 13.669 0 0 1-7.504 23.028c-69.869 11.821-113.777.122-152.324-8.974-34.828-8.219-64.996-14.302-107.842 4.314v49.188h3.371c18.501 0 33.499 14.998 33.499 33.499zm-105.415 0h89.415v-10.133c0-9.665-7.835-17.499-17.499-17.499h-54.417c-9.665 0-17.499 7.834-17.499 17.499zm36.87-43.632h15.675V108.09c-2.555.396-5.173.601-7.838.601s-5.282-.205-7.837-.601zm31.675-66.512c43.52-17.179 75.186-11.136 111.517-2.563 36.127 8.525 77.158 19.598 141.573 9.49l-78.31-80.186a7.999 7.999 0 0 1-.123-11.049s46.099-49.369 71.882-77.004c-71.308 12.198-104.274-1.13-134.776-11.753-28.364-9.879-54.421-17.058-111.763 4.532zm47.745-78.018c-3.122-3.122-3.122-8.192 0-11.314s8.192-3.122 11.314 0l16.303 16.303 47.043-42.675a8.003 8.003 0 0 1 11.3.55 8.002 8.002 0 0 1-.55 11.3l-52.687 47.796a8 8 0 0 1-11.032-.269zm-2.82 204.162H80.92V487h137.525zM149.682 23c-19.232 0-34.845 15.614-34.845 34.846s15.613 34.845 34.845 34.845 34.846-15.613 34.846-34.845S168.914 23 149.682 23zm0 6.575c15.603 0 28.271 12.668 28.271 28.271s-12.668 28.27-28.271 28.27-28.27-12.667-28.27-28.27 12.667-28.271 28.27-28.271zm0 16c-6.772 0-12.27 5.498-12.27 12.271 0 6.772 5.498 12.27 12.27 12.27 6.773 0 12.271-5.498 12.271-12.27 0-6.773-5.498-12.271-12.271-12.271z" fill="#000000" opacity="1" data-original="#000000"></path></g></svg>